<svg id="sicon" xmlns="http://www.w3.org/2000/svg" viewBox="0 0 600 600"><style>.st0{fill:#848F91;}</style><g id="g3027"><path id="path3029" class="st0" d="M404.046 259.498c0-41-14.6-76-43.7-105.1s-64.2-43.7-105.1-43.7-76 14.6-105.1 43.7-43.7 64.2-43.7 105.1 14.6 76 43.7 105.1 64.2 43.7 105.1 43.7 76-14.6 105.1-43.7 43.7-64.1 43.7-105.1zm170.1 276.4c0 11.5-4.2 21.5-12.6 29.9s-18.4 12.6-29.9 12.6c-12 0-21.9-4.2-29.9-12.6l-113.9-113.6c-39.6 27.5-83.8 41.2-132.5 41.2-31.7 0-62-6.1-90.9-18.4-28.9-12.3-53.8-28.9-74.7-49.8-21-21-37.6-45.9-49.9-74.8s-18.4-59.2-18.4-90.9 6.1-62 18.4-90.9 28.9-53.8 49.8-74.7c20.9-20.9 45.8-37.5 74.7-49.8s59.2-18.4 90.9-18.4 62 6.1 90.9 18.4 53.8 28.9 74.7 49.8 37.5 45.8 49.8 74.7c12.3 28.9 18.4 59.2 18.4 90.9 0 48.7-13.7 92.9-41.2 132.5l113.9 113.9c8.3 8.3 12.4 18.3 12.4 30z"/></g></svg>
